<svg xmlns="http://www.w3.org/2000/svg" viewBox="0 0 48 48"><defs><style>.cls-1{fill:#201602;}</style></defs><title>Asset 30ldpi</title><g id="Layer_2" data-name="Layer 2"><g id="layer_1-2" data-name="layer 1"><rect class="cls-1" x="32" y="7" width="2" height="4"/><path class="cls-1" d="M33,48a1,1,0,0,1-.6-.2L29,45.25,25.6,47.8a1,1,0,0,1-1.2,0L21,45.25,17.6,47.8a1,1,0,0,1-1.2,0L13,45.25,9.6,47.8a1,1,0,0,1-1.2,0L5,45.25,1.6,47.8a1,1,0,0,1-1,.09A1,1,0,0,1,0,47V7A7,7,0,0,1,7,0V2A5,5,0,0,0,2,7V45l2.4-1.8a1,1,0,0,1,1.2,0L9,45.75l3.4-2.55a1,1,0,0,1,1.2,0L17,45.75l3.4-2.55a1,1,0,0,1,1.2,0L25,45.75l3.4-2.55a1,1,0,0,1,1.2,0L32,45V37h2V47a1,1,0,0,1-.55.89A1,1,0,0,1,33,48Z"/><path class="cls-1" d="M39,8H13a1,1,0,0,1-1-1A5,5,0,0,0,7,2,1,1,0,0,1,7,0H33a7,7,0,0,1,7,7A1,1,0,0,1,39,8ZM13.93,6h24A5,5,0,0,0,33,2H11.89A6.92,6.92,0,0,1,13.93,6Z"/><path class="cls-1" d="M36,31a4,4,0,0,1-4-4h2a2,2,0,1,0,2-2,4,4,0,1,1,4-4H38a2,2,0,1,0-2,2,4,4,0,0,1,0,8Z"/><rect class="cls-1" x="35" y="30" width="2" height="3"/><rect class="cls-1" x="35" y="15" width="2" height="3"/><rect class="cls-1" x="42" y="23" width="2" height="2"/><rect class="cls-1" x="28" y="23" width="2" height="2"/><path class="cls-1" d="M25,41a.89.89,0,0,1-.36-.07A1,1,0,0,1,24,40V24a12,12,0,1,1,7,10.92l-5.28,5.76A1,1,0,0,1,25,41ZM36,14A10,10,0,0,0,26,24V37.43L30.05,33a1,1,0,0,1,1.21-.2A10,10,0,1,0,36,14Z"/><rect class="cls-1" x="5" y="17" width="4" height="2"/><rect class="cls-1" x="5" y="12" width="11" height="2"/><rect class="cls-1" x="12" y="17" width="11" height="2"/><rect class="cls-1" x="5" y="22" width="4" height="2"/><rect class="cls-1" x="12" y="22" width="8" height="2"/><rect class="cls-1" x="5" y="27" width="4" height="2"/><rect class="cls-1" x="12" y="27" width="10" height="2"/><rect class="cls-1" x="5" y="32" width="4" height="2"/><rect class="cls-1" x="12" y="32" width="6" height="2"/><rect class="cls-1" x="5" y="37" width="4" height="2"/><rect class="cls-1" x="12" y="37" width="10" height="2"/></g></g></svg>